<?xml version="1.0" encoding="UTF-8"?>
<svg id="YARG_Logo" xmlns="http://www.w3.org/2000/svg" viewBox="0 0 512.97 236.82">
  <defs>
  <filter id="inner-glow">
      <feFlood flood-color="white"/>
      <feComposite in2="SourceAlpha" operator="out"/>

      <feMorphology operator="dilate" radius="6"/>
      <feGaussianBlur stdDeviation="4" result="blur"/>
      <feComposite operator="atop" in2="SourceGraphic" result="inner"/>

      <feTurbulence result="fNoise" type="fractalNoise" baseFrequency="10"/>
      <feColorMatrix in2="fNoise" type="saturate" values="0"/>
      <feComposite id="noisemix" operator="arithmetic" in="inner" in2="clipNoise" k1="0.5" k2="1"/>
    </filter>

    <linearGradient id="fillGradient" x1="50%" y1="0%" x2="50%" y2="100%">
      <stop offset="0%" stop-color="#b8b8b8" />
      <stop offset="25%" stop-color="#ffffff" />
    </linearGradient>
  </defs>

  <g fill="url(#fillGradient)" filter="url(#inner-glow)">
    <g id="Y">
      <polygon id="Y-right" points="101.63 13.87 121.18 35.6 97.22 61.87 97.22 185.58 105.29 176.72 105.29 176.57 105.31 176.55 105.31 100.98 184.72 13.87 101.63 13.87"/>
      <polygon id="Y-middle" points="81.11 79.56 81.11 203.27 89.17 194.42 89.17 70.7 81.11 79.56"/>
      <polygon id="Y-left" points="64.97 83.08 49.45 65.96 0 65.96 64.97 137.5 64.97 220.98 73.04 212.12 73.04 91.99 64.97 83.08"/>
    </g>
    <path id="A" d="m123.13,157.12v-49.12L222.01,0v170.68h-38.04v-80.58l-60.84,67.01Z"/>
    <path id="R" d="m239.76,170.69h37.02l.29-55.74h19.37l109.6,121.87v-51.19l-67.96-74.43c13.05-5.54,24.55-16.09,24.55-47.3,0-26.98-23.09-48.41-50.07-49.69l-7.15-.34h-65.64v156.82Zm62.78-86.88l-3.07.16h-22.55v-41.37h21.69l5.01.6c4.97.59,9.47,2.76,12.97,6,3.5,3.23,5.99,7.56,6.96,12.46,0,11.78-9.23,21.51-21.01,22.14Z"/>
    <path id="G" d="m471.95,113.96l-2.75,4.09c-14.22,21.16-43.89,24.82-62.86,7.8,0,0-16.23-10.91-16.23-34.09-.12-11.82,1.82-19.71,16.23-34.1s48.64-13.36,62.86,7.8l2.77,4.13h40.98l-6.82-13.11c-4.18-8.02-9.45-14.94-15.5-20.73-15.03-14.41-34.91-21.88-54.9-21.88-22.02,0-44.19,9.05-60.21,27.86-12.23,14.36-18.01,32.28-17.33,50.03-.68,17.75,5.12,35.68,17.33,50.02,16.02,18.81,38.19,27.86,60.21,27.86,19.99,0,43.95-6.7,60.77-28.18l16.45,18.41v-68.12h-60.85l19.84,22.21Z"/>
  </g>
</svg>